<?xml version="1.0" encoding="UTF-8"?>
<svg version="1.1" xmlns="http://www.w3.org/2000/svg" width="225" height="225">
<path d="M0 0 C74.25 0 148.5 0 225 0 C225 74.25 225 148.5 225 225 C150.75 225 76.5 225 0 225 C0 150.75 0 76.5 0 0 Z " fill="#0B8887" transform="translate(0,0)"/>
<path d="M0 0 C0.75796875 -0.00773437 1.5159375 -0.01546875 2.296875 -0.0234375 C7.87140067 -0.00359933 7.87140067 -0.00359933 10.125 2.25 C10.36791992 4.66430664 10.36791992 4.66430664 10.35546875 7.66015625 C10.35353516 8.73201172 10.35160156 9.80386719 10.34960938 10.90820312 C10.33124023 12.59333008 10.33124023 12.59333008 10.3125 14.3125 C10.31185547 15.43978516 10.31121094 16.56707031 10.31054688 17.72851562 C10.26513317 26.10986683 10.26513317 26.10986683 9.125 27.25 C7.69561606 27.35841672 6.26147454 27.40573743 4.828125 27.42578125 C3.51328125 27.46155273 3.51328125 27.46155273 2.171875 27.49804688 C0.32314343 27.54065033 -1.52588253 27.57209747 -3.375 27.59179688 C-7.4110261 27.71866027 -10.30411201 27.97889993 -13.984375 29.7265625 C-16.79982734 33.48437699 -16.53479063 36.74030893 -16.375 41.3125 C-16.37757812 42.12783203 -16.38015625 42.94316406 -16.3828125 43.78320312 C-16.4405888 48.14330713 -16.4405888 48.14330713 -14.64672852 51.97802734 C-12.34354614 53.63154535 -10.87952578 53.64682447 -8.05859375 53.69140625 C-7.12982422 53.71783203 -6.20105469 53.74425781 -5.24414062 53.77148438 C-4.27669922 53.78501953 -3.30925781 53.79855469 -2.3125 53.8125 C-0.39435782 53.84686618 1.52366043 53.88943121 3.44140625 53.94140625 C4.29162354 53.95373291 5.14184082 53.96605957 6.01782227 53.97875977 C8.125 54.25 8.125 54.25 10.125 56.25 C10.36791992 58.55664062 10.36791992 58.55664062 10.35546875 61.40625 C10.35353516 62.42847656 10.35160156 63.45070312 10.34960938 64.50390625 C10.33124023 66.11072266 10.33124023 66.11072266 10.3125 67.75 C10.31185547 68.82121094 10.31121094 69.89242187 10.31054688 70.99609375 C10.26530114 78.96939772 10.26530114 78.96939772 9.125 81.25 C5.66696269 81.36795981 2.20945443 81.43782752 -1.25 81.5 C-2.21550781 81.53351563 -3.18101563 81.56703125 -4.17578125 81.6015625 C-13.74503792 81.7300089 -21.19369427 78.96632055 -28.875 73.25 C-29.7 72.693125 -30.525 72.13625 -31.375 71.5625 C-34.98297836 68.22512002 -37.41409964 64.48409705 -39.875 60.25 C-40.50341797 59.19039062 -40.50341797 59.19039062 -41.14453125 58.109375 C-45.45194736 49.40321947 -45.41286587 37.68657343 -43.1796875 28.33984375 C-42.25137738 26.12828142 -41.19573052 24.24949605 -39.875 22.25 C-39.42769531 21.48558594 -38.98039062 20.72117187 -38.51953125 19.93359375 C-32.46340652 10.07818434 -24.16450157 4.43003785 -13.11328125 1.125 C-8.72428645 0.08719796 -4.49373595 -0.04730248 0 0 Z " fill="#FAFCFC" transform="translate(87.875,69.75)"/>
<path d="M0 0 C1.14964233 0.01522705 1.14964233 0.01522705 2.32250977 0.03076172 C14.09778097 0.35180367 23.95272886 4.55722623 32.6875 12.5625 C40.72748238 21.1726939 44.56801799 31.9689387 44.2421875 43.64453125 C42.98029348 54.95304302 38.21492593 64.43187486 29.95703125 72.25 C20.99685328 79.4038347 12.00005086 81.55458801 0.8125 81.5625 C-0.10660156 81.57474609 -1.02570313 81.58699219 -1.97265625 81.59960938 C-3.28943359 81.60250977 -3.28943359 81.60250977 -4.6328125 81.60546875 C-5.43477051 81.60957764 -6.23672852 81.61368652 -7.06298828 81.61791992 C-9.0625 81.375 -9.0625 81.375 -11.0625 79.375 C-11.51670837 75.56045714 -11.38654776 71.71347486 -11.375 67.875 C-11.39111328 66.80378906 -11.40722656 65.73257813 -11.42382812 64.62890625 C-11.42447266 63.60667969 -11.42511719 62.58445313 -11.42578125 61.53125 C-11.42876221 60.59087891 -11.43174316 59.65050781 -11.43481445 58.68164062 C-11.31195068 57.92044922 -11.18908691 57.15925781 -11.0625 56.375 C-8.00610976 54.33740651 -7.22518877 54.11132151 -3.75390625 53.99609375 C-2.92439453 53.96193359 -2.09488281 53.92777344 -1.24023438 53.89257812 C0.05430664 53.85293945 0.05430664 53.85293945 1.375 53.8125 C3.08216234 53.75230748 4.78920607 53.68862771 6.49609375 53.62109375 C7.25204834 53.59716553 8.00800293 53.5732373 8.78686523 53.54858398 C10.93470953 53.37522523 12.86656705 52.95767922 14.9375 52.375 C15.84843654 48.4761916 16.10182051 44.81328023 16.125 40.8125 C16.13917969 39.69746094 16.15335938 38.58242187 16.16796875 37.43359375 C15.9408266 34.41914799 15.68870363 32.81121703 13.9375 30.375 C11.04575185 28.62769761 8.81746743 28.11354919 5.4609375 28.03125 C4.625625 28.00160156 3.7903125 27.97195312 2.9296875 27.94140625 C1.17708835 27.89693732 -0.57551588 27.85266824 -2.328125 27.80859375 C-3.57722656 27.76412109 -3.57722656 27.76412109 -4.8515625 27.71875 C-5.61162598 27.70005859 -6.37168945 27.68136719 -7.15478516 27.66210938 C-9.0625 27.375 -9.0625 27.375 -11.0625 25.375 C-11.51545333 21.74855496 -11.38654802 18.08898262 -11.375 14.4375 C-11.39111328 13.42236328 -11.40722656 12.40722656 -11.42382812 11.36132812 C-11.42447266 10.38744141 -11.42511719 9.41355469 -11.42578125 8.41015625 C-11.42876221 7.5169165 -11.43174316 6.62367676 -11.43481445 5.70336914 C-11.0625 3.375 -11.0625 3.375 -9.76855469 1.58520508 C-6.84522007 -0.48848835 -3.45042699 -0.06480025 0 0 Z " fill="#62D8C0" transform="translate(135.0625,69.625)"/>
<path d="M0 0 C4.95 0 9.9 0 15 0 C14.01 0.66 13.02 1.32 12 2 C12.99 2.66 13.98 3.32 15 4 C10.05 3.67 5.1 3.34 0 3 C0 2.01 0 1.02 0 0 Z " fill="#309495" transform="translate(80,151)"/>
</svg>
